<svg preserveAspectRatio="none" width="100%" height="100%" overflow="visible" style="display: block;" viewBox="0 0 12 12" fill="none" xmlns="http://www.w3.org/2000/svg">
<g id="phone" clip-path="url(#clip0_975_453)">
<path id="Vector" d="M11 8.46V9.96C11.0006 10.0993 10.972 10.2371 10.9163 10.3647C10.8605 10.4923 10.7786 10.6068 10.676 10.7009C10.5734 10.7951 10.4523 10.8667 10.3204 10.9114C10.1885 10.956 10.0487 10.9725 9.91 10.96C8.37142 10.7928 6.8935 10.2671 5.595 9.425C4.38691 8.65733 3.36267 7.63309 2.595 6.425C1.74999 5.1206 1.22412 3.6355 1.06 2.09C1.04751 1.95173 1.06394 1.81238 1.10825 1.68081C1.15256 1.54924 1.22379 1.42834 1.31738 1.32581C1.41098 1.22328 1.5249 1.14135 1.6519 1.08526C1.77889 1.02917 1.91617 1.00013 2.055 1H3.555C3.79765 0.997612 4.0329 1.08354 4.21688 1.24177C4.40087 1.39999 4.52104 1.61972 4.555 1.86C4.61831 2.34003 4.73572 2.81136 4.905 3.265C4.97227 3.44396 4.98683 3.63846 4.94695 3.82544C4.90708 4.01242 4.81443 4.18406 4.68 4.32L4.045 4.955C4.75678 6.20677 5.79323 7.24322 7.045 7.955L7.68 7.32C7.81594 7.18557 7.98758 7.09292 8.17456 7.05305C8.36154 7.01317 8.55604 7.02773 8.735 7.095C9.18864 7.26428 9.65997 7.38169 10.14 7.445C10.3829 7.47927 10.6047 7.6016 10.7633 7.78875C10.9218 7.97589 11.0061 8.21479 11 8.46Z" stroke="var(--stroke-0, #999999)" stroke-linecap="round" stroke-linejoin="round"/>
</g>
<defs>
<clipPath id="clip0_975_453">
<rect width="12" height="12" fill="white"/>
</clipPath>
</defs>
</svg>
