<svg preserveAspectRatio="none" width="100%" height="100%" overflow="visible" style="display: block;" viewBox="0 0 12 12" fill="none" xmlns="http://www.w3.org/2000/svg">
<g id="Icon" clip-path="url(#clip0_975_460)">
<path id="Vector" d="M5.7625 1.1475C5.78441 1.10323 5.81826 1.06597 5.86023 1.03991C5.90219 1.01386 5.9506 1.00005 6 1.00005C6.0494 1.00005 6.09781 1.01386 6.13977 1.03991C6.18174 1.06597 6.21559 1.10323 6.2375 1.1475L7.3925 3.487C7.46859 3.64098 7.58091 3.7742 7.71981 3.87523C7.85872 3.97625 8.02006 4.04206 8.19 4.067L10.773 4.445C10.8219 4.45209 10.8679 4.47274 10.9057 4.5046C10.9436 4.53646 10.9717 4.57827 10.987 4.6253C11.0023 4.67233 11.0041 4.7227 10.9923 4.77072C10.9805 4.81873 10.9554 4.86248 10.92 4.897L9.052 6.716C8.92881 6.83605 8.83664 6.98424 8.78342 7.14781C8.7302 7.31139 8.71753 7.48544 8.7465 7.655L9.1875 10.225C9.19614 10.2739 9.19086 10.3243 9.17225 10.3703C9.15364 10.4164 9.12247 10.4563 9.08227 10.4855C9.04208 10.5147 8.99449 10.532 8.94493 10.5354C8.89538 10.5389 8.84585 10.5283 8.802 10.505L6.493 9.291C6.34086 9.21111 6.17159 9.16938 5.99975 9.16938C5.82791 9.16938 5.65864 9.21111 5.5065 9.291L3.198 10.505C3.15417 10.5282 3.1047 10.5386 3.05523 10.5351C3.00575 10.5316 2.95826 10.5143 2.91815 10.4851C2.87804 10.4559 2.84692 10.4161 2.82833 10.3701C2.80974 10.3241 2.80443 10.2739 2.813 10.225L3.2535 7.6555C3.2826 7.48587 3.26999 7.3117 3.21677 7.14802C3.16355 6.98435 3.0713 6.83608 2.948 6.716L1.08 4.8975C1.0443 4.86302 1.019 4.8192 1.00698 4.77104C0.994966 4.72288 0.996719 4.67231 1.01204 4.6251C1.02736 4.57788 1.05563 4.53592 1.09364 4.50399C1.13164 4.47206 1.17785 4.45145 1.227 4.4445L3.8095 4.067C3.97963 4.04225 4.14119 3.97653 4.28029 3.87549C4.41939 3.77446 4.53185 3.64114 4.608 3.487L5.7625 1.1475Z" stroke="var(--stroke-0, #F0B100)" stroke-linecap="round" stroke-linejoin="round"/>
</g>
<defs>
<clipPath id="clip0_975_460">
<rect width="12" height="12" fill="white"/>
</clipPath>
</defs>
</svg>
