<svg preserveAspectRatio="none" width="100%" height="100%" overflow="visible" style="display: block;" viewBox="0 0 18.3333 19.2495" fill="none" xmlns="http://www.w3.org/2000/svg">
<path id="Vector" d="M0.916667 8.24952C0.916603 7.98284 0.974723 7.71934 1.08697 7.47743C1.19922 7.23552 1.3629 7.021 1.56658 6.84886L7.98325 1.34977C8.31415 1.07011 8.73341 0.916667 9.16667 0.916667C9.59992 0.916667 10.0192 1.07011 10.3501 1.34977L16.7668 6.84886C16.9704 7.021 17.1341 7.23552 17.2464 7.47743C17.3586 7.71934 17.4167 7.98284 17.4167 8.24952V16.4995C17.4167 16.9858 17.2235 17.4521 16.8797 17.7959C16.5359 18.1397 16.0696 18.3329 15.5833 18.3329H2.75C2.26377 18.3329 1.79745 18.1397 1.45364 17.7959C1.10982 17.4521 0.916667 16.9858 0.916667 16.4995V8.24952Z" stroke="var(--stroke-0, white)" stroke-width="1.83333" stroke-linecap="round" stroke-linejoin="round"/>
</svg>
