<svg width="64" height="64" viewBox="0 0 64 64" fill="none" xmlns="http://www.w3.org/2000/svg">
  <circle cx="32" cy="32" r="32" fill="white"/>
  <path d="M49.92 32.38c0-1.3-.12-2.54-.34-3.74H32.36v7.08h9.86c-.43 2.28-1.72 4.21-3.66 5.51v4.59h5.92c3.46-3.19 5.44-7.9 5.44-13.44Z" fill="#4285F4"/>
  <path d="M32.36 50.25c4.95 0 9.1-1.64 12.13-4.43l-5.92-4.59c-1.64 1.1-3.73 1.75-6.21 1.75-4.78 0-8.83-3.23-10.28-7.57h-6.12v4.74c3.01 5.98 9.2 10.1 16.4 10.1Z" fill="#34A853"/>
  <path d="M22.08 35.41a10.94 10.94 0 0 1 0-7.02v-4.74h-6.12a18.25 18.25 0 0 0 0 16.5l6.12-4.74Z" fill="#FBBC05"/>
  <path d="M32.36 20.82c2.69 0 5.1.92 7 2.74l5.25-5.25c-3.18-2.96-7.33-4.78-12.25-4.78-7.2 0-13.39 4.12-16.4 10.12l6.12 4.74c1.45-4.34 5.5-7.57 10.28-7.57Z" fill="#EA4335"/>
</svg>
