<svg width="64" height="64" viewBox="0 0 64 64" fill="none" xmlns="http://www.w3.org/2000/svg">
  <circle cx="32" cy="32" r="32" fill="white"/>
  <path d="M41.36 34.12c-.04-4.42 3.62-6.56 3.79-6.66-2.07-3.03-5.28-3.44-6.4-3.48-2.69-.28-5.3 1.61-6.67 1.61-1.4 0-3.52-1.58-5.8-1.53-2.94.04-5.69 1.75-7.2 4.42-3.11 5.39-.79 13.31 2.2 17.68 1.5 2.14 3.24 4.54 5.52 4.45 2.23-.09 3.07-1.43 5.76-1.43 2.67 0 3.46 1.43 5.8 1.38 2.4-.04 3.91-2.15 5.35-4.31 1.73-2.46 2.42-4.89 2.45-5.01-.05-.02-4.75-1.82-4.8-7.12Z" fill="black"/>
  <path d="M37 21.13c1.2-1.5 2.03-3.54 1.79-5.62-1.74.08-3.92 1.21-5.17 2.67-1.11 1.3-2.1 3.42-1.83 5.42 1.96.15 3.96-.99 5.21-2.47Z" fill="black"/>
</svg>
