<svg preserveAspectRatio="none" width="100%" height="100%" overflow="visible" style="display: block;" viewBox="0 0 18 18" fill="none" xmlns="http://www.w3.org/2000/svg">
<g id="message-circle">
<path id="Vector" d="M15.75 8.625C15.7526 9.6149 15.5213 10.5914 15.075 11.475C14.5458 12.5338 13.7323 13.4244 12.7256 14.047C11.7189 14.6695 10.5587 14.9995 9.375 15C8.3851 15.0026 7.40859 14.7713 6.525 14.325L2.25 15.75L3.675 11.475C3.2287 10.5914 2.99742 9.6149 3 8.625C3.00046 7.44132 3.33046 6.28114 3.95304 5.27441C4.57562 4.26769 5.46619 3.45418 6.525 2.925C7.40859 2.4787 8.3851 2.24742 9.375 2.25H9.75C11.3133 2.33624 12.7898 2.99607 13.8969 4.10314C15.0039 5.21022 15.6638 6.68674 15.75 8.25V8.625Z" stroke="var(--stroke-0, white)" stroke-width="2" stroke-linecap="round" stroke-linejoin="round"/>
</g>
</svg>
