<svg width="20" height="20" viewBox="0 0 20 20" fill="none" xmlns="http://www.w3.org/2000/svg">
  <path d="M10.5313 1.66667H10.1647C9.72262 1.66667 9.2987 1.84226 8.98614 2.15482C8.67358 2.46738 8.49799 2.8913 8.49799 3.33333V3.48333C8.49769 3.7756 8.42053 4.06265 8.27427 4.31569C8.128 4.56873 7.91777 4.77886 7.66465 4.925L7.30632 5.13333C7.05295 5.27961 6.76555 5.35662 6.47299 5.35662C6.18042 5.35662 5.89302 5.27961 5.63965 5.13333L5.51465 5.06667C5.13221 4.84605 4.67785 4.7862 4.25132 4.90026C3.82479 5.01431 3.46094 5.29294 3.23965 5.675L3.05632 5.99167C2.8357 6.37411 2.77586 6.82847 2.88991 7.255C3.00396 7.68153 3.2826 8.04538 3.66465 8.26667L3.78965 8.35C4.04155 8.49542 4.251 8.70424 4.39719 8.95569C4.54339 9.20714 4.62123 9.49247 4.62299 9.78333V10.2083C4.62415 10.502 4.54769 10.7908 4.40136 11.0454C4.25502 11.3001 4.04399 11.5115 3.78965 11.6583L3.66465 11.7333C3.2826 11.9546 3.00396 12.3185 2.88991 12.745C2.77586 13.1715 2.8357 13.6259 3.05632 14.0083L3.23965 14.325C3.46094 14.7071 3.82479 14.9857 4.25132 15.0997C4.67785 15.2138 5.13221 15.1539 5.51465 14.9333L5.63965 14.8667C5.89302 14.7204 6.18042 14.6434 6.47299 14.6434C6.76555 14.6434 7.05295 14.7204 7.30632 14.8667L7.66465 15.075C7.91777 15.2211 8.128 15.4313 8.27427 15.6843C8.42053 15.9373 8.49769 16.2244 8.49799 16.5167V16.6667C8.49799 17.1087 8.67358 17.5326 8.98614 17.8452C9.2987 18.1577 9.72262 18.3333 10.1647 18.3333H10.5313C10.9734 18.3333 11.3973 18.1577 11.7098 17.8452C12.0224 17.5326 12.198 17.1087 12.198 16.6667V16.5167C12.1983 16.2244 12.2754 15.9373 12.4217 15.6843C12.568 15.4313 12.7782 15.2211 13.0313 15.075L13.3897 14.8667C13.643 14.7204 13.9304 14.6434 14.223 14.6434C14.5155 14.6434 14.803 14.7204 15.0563 14.8667L15.1813 14.9333C15.5638 15.1539 16.0181 15.2138 16.4447 15.0997C16.8712 14.9857 17.235 14.7071 17.4563 14.325L17.6397 14C17.8603 13.6176 17.9201 13.1632 17.8061 12.7367C17.692 12.3101 17.4134 11.9463 17.0313 11.725L16.9063 11.6583C16.652 11.5115 16.441 11.3001 16.2946 11.0454C16.1483 10.7908 16.0718 10.502 16.073 10.2083V9.79167C16.0718 9.49798 16.1483 9.2092 16.2946 8.95457C16.441 8.69994 16.652 8.4885 16.9063 8.34167L17.0313 8.26667C17.4134 8.04538 17.692 7.68153 17.8061 7.255C17.9201 6.82847 17.8603 6.37411 17.6397 5.99167L17.4563 5.675C17.235 5.29294 16.8712 5.01431 16.4447 4.90026C16.0181 4.7862 15.5638 4.84605 15.1813 5.06667L15.0563 5.13333C14.803 5.27961 14.5155 5.35662 14.223 5.35662C13.9304 5.35662 13.643 5.27961 13.3897 5.13333L13.0313 4.925C12.7782 4.77886 12.568 4.56873 12.4217 4.31569C12.2754 4.06265 12.1983 3.7756 12.198 3.48333V3.33333C12.198 2.8913 12.0224 2.46738 11.7098 2.15482C11.3973 1.84226 10.9734 1.66667 10.5313 1.66667Z" stroke="#9F9FA9" stroke-width="1.66667" stroke-linecap="round" stroke-linejoin="round"/>
  <path d="M10 12.5C11.3807 12.5 12.5 11.3807 12.5 10C12.5 8.61929 11.3807 7.5 10 7.5C8.61929 7.5 7.5 8.61929 7.5 10C7.5 11.3807 8.61929 12.5 10 12.5Z" stroke="#9F9FA9" stroke-width="1.66667" stroke-linecap="round" stroke-linejoin="round"/>
</svg>
