<svg preserveAspectRatio="none" width="100%" height="100%" overflow="visible" style="display: block;" viewBox="0 0 27 27" fill="none" xmlns="http://www.w3.org/2000/svg">
<g id="Live">
<circle id="Ellipse 37" cx="13.5" cy="13.5" r="12" fill="var(--fill-0, black)" stroke="var(--stroke-0, white)" stroke-width="3" stroke-linecap="round" stroke-linejoin="round" stroke-dasharray="1 5"/>
<path id="Ellipse 35" d="M21 13.5C21 17.6421 17.6421 21 13.5 21C9.35786 21 6 17.6421 6 13.5C6 9.35786 9.35786 6 13.5 6C17.6421 6 21 9.35786 21 13.5ZM6.67758 13.5C6.67758 17.2679 9.73208 20.3224 13.5 20.3224C17.2679 20.3224 20.3224 17.2679 20.3224 13.5C20.3224 9.73208 17.2679 6.67758 13.5 6.67758C9.73208 6.67758 6.67758 9.73208 6.67758 13.5Z" fill="var(--fill-0, white)"/>
<circle id="Ellipse 36" cx="13.5" cy="13.5" r="3.9" fill="var(--fill-0, white)"/>
<g id="stroke">
<line id="Line 25" x1="4.30718" y1="3.23574" x2="23.893" y2="22.8215" stroke="var(--stroke-0, black)" stroke-width="2" stroke-linecap="round"/>
<line id="Line 24" x1="4.28367" y1="3.23574" x2="23.9984" y2="22.9505" stroke="var(--stroke-0, white)" stroke-linecap="round"/>
</g>
</g>
</svg>
