<svg preserveAspectRatio="none" width="100%" height="100%" overflow="visible" style="display: block;" viewBox="0 0 48 48" fill="none" xmlns="http://www.w3.org/2000/svg">
<g id="Camera flip">
<circle id="Ellipse 45" cx="24" cy="24" r="24" fill="var(--fill-0, black)" fill-opacity="0.35"/>
<g id="flip">
<path id="Ellipse 46" d="M35.5602 28.8605C34.7788 31.3188 32.927 33.4138 30.3705 34.7316C27.8141 36.0493 24.739 36.4939 21.753 35.9776C18.7669 35.4612 16.0872 34.0214 14.2431 31.9428C12.3991 29.8641 11.5251 27.2977 11.7936 24.7507L13.1179 24.8817C12.8789 27.1491 13.657 29.4338 15.2986 31.2843C16.9402 33.1348 19.3258 34.4165 21.984 34.8762C24.6423 35.3358 27.3797 34.94 29.6556 33.7669C31.9314 32.5938 33.5799 30.7288 34.2755 28.5404L35.5602 28.8605Z" fill="var(--fill-0, white)"/>
<path id="Polygon 1" d="M12.7464 21.1398L14.9834 25.0702L9.89309 24.6485L12.7464 21.1398Z" fill="var(--fill-0, white)"/>
</g>
<g id="flip_2">
<path id="Ellipse 46_2" d="M12.1146 19.1395C12.896 16.6812 14.7478 14.5862 17.3043 13.2684C19.8607 11.9507 22.9357 11.5061 25.9217 12.0224C28.9078 12.5388 31.5875 13.9786 33.4315 16.0572C35.2755 18.1359 36.1496 20.7023 35.8811 23.2493L34.5567 23.1183C34.7958 20.8509 34.0177 18.5662 32.3761 16.7157C30.7345 14.8652 28.3489 13.5835 25.6907 13.1238C23.0325 12.6642 20.295 13.06 18.0192 14.2331C15.7434 15.4062 14.0948 17.2712 13.3993 19.4596L12.1146 19.1395Z" fill="var(--fill-0, white)"/>
<path id="Polygon 1_2" d="M34.9283 26.8602L32.6913 22.9298L37.7816 23.3515L34.9283 26.8602Z" fill="var(--fill-0, white)"/>
</g>
</g>
</svg>
