<svg preserveAspectRatio="none" width="100%" height="100%" overflow="visible" style="display: block;" viewBox="0 0 20 20" fill="none" xmlns="http://www.w3.org/2000/svg">
<g id="Icon">
<path id="Vector" d="M12.5 1.66667H5C4.55797 1.66667 4.13405 1.84226 3.82149 2.15482C3.50893 2.46738 3.33333 2.89131 3.33333 3.33333V16.6667C3.33333 17.1087 3.50893 17.5326 3.82149 17.8452C4.13405 18.1577 4.55797 18.3333 5 18.3333H15C15.442 18.3333 15.866 18.1577 16.1785 17.8452C16.4911 17.5326 16.6667 17.1087 16.6667 16.6667V5.83333L12.5 1.66667Z" stroke="var(--stroke-0, black)" stroke-width="1.66667" stroke-linecap="round" stroke-linejoin="round"/>
<path id="Vector_2" d="M11.6667 1.66667V5C11.6667 5.44203 11.8423 5.86595 12.1548 6.17851C12.4674 6.49107 12.8913 6.66667 13.3333 6.66667H16.6667" stroke="var(--stroke-0, black)" stroke-width="1.66667" stroke-linecap="round" stroke-linejoin="round"/>
<path id="Vector_3" d="M8.33333 7.5H6.66667" stroke="var(--stroke-0, black)" stroke-width="1.66667" stroke-linecap="round" stroke-linejoin="round"/>
<path id="Vector_4" d="M13.3333 10.8333H6.66667" stroke="var(--stroke-0, black)" stroke-width="1.66667" stroke-linecap="round" stroke-linejoin="round"/>
<path id="Vector_5" d="M13.3333 14.1667H6.66667" stroke="var(--stroke-0, black)" stroke-width="1.66667" stroke-linecap="round" stroke-linejoin="round"/>
</g>
</svg>
